<?xml version="1.0" encoding="UTF-8"?>
<svg xmlns="http://www.w3.org/2000/svg" id="Layer_1" data-name="Layer 1" width="1280" height="720" version="1.1" viewBox="0 0 1280 720">
  <defs>
    <style>
      .cls-1 {
        stroke: #9999a9;
        stroke-width: 4px;
      }

      .cls-1, .cls-2 {
        fill: none;
      }

      .cls-1, .cls-3 {
        stroke-miterlimit: 10;
      }

      .cls-2 {
        stroke-miterlimit: 8;
        stroke-width: 2px;
      }

      .cls-2, .cls-3 {
        stroke: #fff;
      }

      .cls-4 {
        fill: #00646e;
      }

      .cls-4, .cls-5, .cls-6, .cls-7, .cls-8, .cls-9 {
        stroke-width: 0px;
      }

      .cls-5 {
        fill: #9999a9;
      }

      .cls-6 {
        fill: #00af8e;
      }

      .cls-3 {
        fill: #00557c;
      }

      .cls-7 {
        fill: #fff;
      }

      .cls-8 {
        fill: #0087be;
      }

      .cls-9 {
        fill: #500078;
      }
    </style>
  </defs>
  <rect class="cls-7" width="1280" height="720"/>
  <g>
    <g>
      <g>
        <path class="cls-4" d="M817,535.3h200v89.4c-100,0-100,34-200,14.8v-104.2Z"/>
        <g>
          <path class="cls-7" d="M863,598.7l-3.6,10h-9.2l15.8-41.6h9.8l16.4,41.6h-9.8l-3.6-10h-15.8ZM873,582.7c-1-2.6-1.2-3.2-2.2-6.4-.6,2.6-.8,3-2,6.4l-3.2,9h10.8l-3.2-9h-.2Z"/>
          <path class="cls-7" d="M896.6,598.9c5.2,2.2,8.6,3,12.2,3s6-1.8,6-5-1-3.2-7.6-5.8c-5-2-6.4-2.8-8.2-4-2.4-1.8-3.6-4.4-3.6-7.8s1.8-8,4.8-10.2c2.4-1.8,5.6-2.8,9.8-2.8s8.2.6,13.2,2.2l-2,7.6c-5.6-2-7.6-2.6-10.8-2.6s-5.4,1.6-5.4,4.4,1,3,7,5.4c6.2,2.6,7.2,3,9,4.4,2.4,1.8,3.6,4.6,3.6,8.4,0,8.4-5.4,13-15.4,13s-9.2-.6-14-2.4l1.4-8v.2Z"/>
          <path class="cls-7" d="M932,567.1h9.4v41.6h-9.4v-41.6Z"/>
          <path class="cls-7" d="M983.4,606.3c-5,2.4-7.8,3-13.2,3s-11.8-1.8-15.6-5.6c-3.6-3.8-5.4-9-5.4-15.6,0-13.6,7.8-21.8,20.6-21.8s8.2.8,13.2,3l-3.2,7c-3.4-1.8-6.4-2.6-9.4-2.6-7.2,0-11.4,5.2-11.4,14s4.4,14.2,12,14.2,5.8-.8,9.8-3.2l2.8,7.4-.2.2Z"/>
        </g>
      </g>
      <g>
        <path class="cls-4" d="M1047,535.3h200v89.4c-100,0-100,34-200,14.8v-104.2Z"/>
        <g>
          <path class="cls-7" d="M1073.8,567.1h26.4v7.4h-17v9.4h16.2v7.4h-16.2v17.4h-9.4v-41.6h0Z"/>
          <path class="cls-7" d="M1108,567.1h11.6c7.2,0,10.4.6,13,2.6,2.8,2.2,4.4,5.8,4.4,10s-1.6,7.8-4.4,10c-2.6,2-5.8,2.8-11.6,2.8h-4v15.8h-9.4v-41.6l.4.4ZM1119.8,585.7c3.2,0,4.2,0,5.6-.8,1.6-.8,2.6-2.4,2.6-4.8s-1-4-2.4-5c-1.4-.8-2.6-1-5.6-1h-2.8v11.6h2.8-.2Z"/>
          <path class="cls-7" d="M1177.4,606.5c-6.4,2.2-9.6,2.8-14.8,2.8s-12.2-1.8-15.8-5.4c-3.8-3.8-5.6-9-5.6-15.6s2.6-14,7.8-17.8c3.6-2.8,8-4,14-4s9.8,1,14.6,2.8l-3.2,7.4c-4.2-2-7-2.8-10.8-2.8-8.2,0-12.8,5-12.8,14.2s4.8,14,12.2,14,3.6-.4,5.4-1v-8.4h-7.2v-7.4h16.2v21.2h0Z"/>
          <path class="cls-7" d="M1195.6,598.7l-3.6,10h-9.4l15.8-41.6h9.8l16.4,41.6h-9.8l-3.6-10h-15.6ZM1205.4,582.7c-.8-2.6-1.2-3.2-2.2-6.4-.6,2.6-.8,3-2.2,6.4l-3.2,9h10.8l-3.2-9h0Z"/>
        </g>
      </g>
    </g>
    <g>
      <line class="cls-1" x1="668.8" y1="325.1" x2="842.4" y2="325.1"/>
      <polygon class="cls-5" points="838.4 338.7 862 325.1 838.4 311.5 838.4 338.7"/>
    </g>
    <g>
      <rect class="cls-8" x="442.8" y="245.1" width="270" height="156"/>
      <g>
        <path class="cls-7" d="M547.6,266.1h5.6v10h9.2v-10h5.6v25h-5.6v-10.6h-9.2v10.6h-5.6v-25Z"/>
        <path class="cls-7" d="M573.8,266.1h5.6v20.6h10.6v4.4h-16.4v-25h.2Z"/>
        <path class="cls-7" d="M592.4,285.3c3.2,1.4,5.2,1.8,7.2,1.8s3.6-1.2,3.6-3-.6-1.8-4.6-3.6c-3-1.2-3.8-1.6-4.8-2.4-1.4-1.2-2.2-2.6-2.2-4.8s1-4.8,2.8-6.2c1.4-1.2,3.4-1.6,5.8-1.6s4.8.4,8,1.4l-1.2,4.6c-3.4-1.2-4.6-1.6-6.4-1.6s-3.2,1-3.2,2.6.6,1.8,4.2,3.2c3.6,1.6,4.4,1.8,5.4,2.6,1.4,1.2,2.2,2.8,2.2,5,0,5-3.2,7.8-9.2,7.8s-5.6-.4-8.4-1.4l.8-4.8v.4Z"/>
        <path class="cls-7" d="M508.2,332.7c-3,1.4-4.8,1.8-8,1.8s-7.2-1-9.4-3.4c-2.2-2.2-3.2-5.4-3.2-9.4,0-8.2,4.6-13.2,12.4-13.2s5,.4,7.8,1.8l-1.8,4.2c-2-1.2-3.8-1.6-5.6-1.6-4.4,0-6.8,3.2-6.8,8.4s2.8,8.6,7.2,8.6,3.4-.4,6-2l1.6,4.4-.2.4Z"/>
        <path class="cls-7" d="M527,318.3c1.4,1.8,2.2,4,2.2,6.8s-1,5.8-2.8,7.4c-1.6,1.4-3.8,2.2-6.6,2.2s-5.6-1-7.4-3c-1.4-1.8-2.2-4-2.2-6.8s1-5.6,2.8-7.4c1.6-1.4,3.8-2.2,6.6-2.2s5.6,1,7.4,3ZM515.8,324.9c0,3.8,1.4,5.8,3.8,5.8s3.8-2,3.8-5.6-1.4-5.6-3.8-5.6-3.8,2-3.8,5.6v-.2Z"/>
        <path class="cls-7" d="M533.4,322.5v-6.8h5v2.6c2.4-2.2,4-3,6.6-3s4.2,1,5.2,2.6c.6,1,.8,2.4.8,4.8v11.4h-5.4v-11c0-1.4,0-2-.4-2.6-.4-.8-1.2-1.2-2.2-1.2s-2.8,1-4,2.8v12h-5.4v-11.6h-.2Z"/>
        <path class="cls-7" d="M556.4,328.9c1.8,1.2,3.4,1.8,5.2,1.8s2.6-.6,2.6-1.8-.2-1-.8-1.2c-.4-.2-.6-.2-3-1.2-2.4-.8-3.2-1.2-4-1.8-.8-.8-1.4-2-1.4-3.4,0-3.8,2.8-5.8,7.4-5.8s4,.4,6.6,1.2l-1.4,4c-1.8-1-3.6-1.4-5.2-1.4s-2.4.6-2.4,1.6.4,1.2,2.4,1.8c3,1,4,1.4,5,2.2,1.2,1,1.8,2,1.8,3.6s-.6,3.2-1.8,4.2c-1.4,1.2-3.4,2-6,2s-4.8-.6-6.6-1.6l1.4-4,.2-.2Z"/>
        <path class="cls-7" d="M571.8,319.7v-4h3v-4l5.4-1v5h4v4h-4v7.4c0,2.4.6,3.2,2.4,3.2s1,0,2-.4l.4,4c-1.6.4-3,.6-4.4.6-2.2,0-3.8-.6-4.8-2-.8-1-1-2.6-1-5.4v-7.4h-3Z"/>
        <path class="cls-7" d="M588.2,321.9v-6.2h5.2v3.6c1-2.6,2.6-3.8,4.8-3.8s1.2,0,1.8.2v4.6c-1,0-1.4-.2-2-.2-2.2,0-3.6,1.4-4.2,4v10h-5.4v-12.2h-.2Z"/>
        <path class="cls-7" d="M613,332.1c-1.8,1.8-3.4,2.4-5.8,2.4-3.8,0-6-2.2-6-5.6s1-4.2,2.8-5.2c1.2-.6,3-1,5.6-1h3.2c0-2.4-1.6-3.8-4-3.8s-3,.4-5.2,1.4l-1-3.8c2.2-1,4.6-1.4,7-1.4s5.4.8,6.8,2.4c1.4,1.4,1.8,2.8,1.8,6.6v5.2c0,2.6,0,4.2.2,4.8h-5.2v-2h-.2ZM612.8,325.9h-1.8c-3,0-4.4,1-4.4,2.8s1,2.4,2.4,2.4,2.6-.8,3.6-2.4v-2.8h.2Z"/>
        <path class="cls-7" d="M629.8,310.1c0,1.8-1.4,3.2-3.2,3.2s-3.2-1.4-3.2-3.2,1.4-3.2,3.2-3.2,3.2,1.4,3.2,3.2ZM624,315.7h5.4v18.4h-5.4v-18.4Z"/>
        <path class="cls-7" d="M635,322.5v-6.8h5v2.6c2.4-2.2,4-3,6.6-3s4.2,1,5.2,2.6c.6,1,.8,2.4.8,4.8v11.4h-5.4v-11c0-1.4,0-2-.4-2.6-.4-.8-1.2-1.2-2.2-1.2s-2.8,1-4,2.8v12h-5.4v-11.6h-.2Z"/>
        <path class="cls-7" d="M656,319.7v-4h3v-4l5.4-1v5h4v4h-4v7.4c0,2.4.6,3.2,2.4,3.2s1,0,2-.4l.4,4c-1.6.4-3,.6-4.4.6-2.2,0-3.8-.6-4.8-2-.8-1-1-2.6-1-5.4v-7.4h-3Z"/>
        <path class="cls-7" d="M531.6,372.1c1.8,1.2,3.4,1.8,5.2,1.8s2.6-.6,2.6-1.8-.2-1-.8-1.2c-.4-.2-.6-.2-3-1.2-2.4-.8-3.2-1.2-4-1.8-.8-.8-1.4-2-1.4-3.4,0-3.8,2.8-5.8,7.4-5.8s4,.4,6.6,1.2l-1.4,4c-1.8-1-3.6-1.4-5.2-1.4s-2.4.6-2.4,1.6.4,1.2,2.4,1.8c3,1,4,1.4,5,2.2,1.2,1,1.8,2,1.8,3.6s-.6,3.2-1.8,4.2c-1.4,1.2-3.4,2-6,2s-4.8-.6-6.6-1.6l1.4-4,.2-.2Z"/>
        <path class="cls-7" d="M563.6,376.3c-1.8,1-3.8,1.4-6.4,1.4-6,0-9.6-3.6-9.6-9.6s1-5.6,2.6-7.4c1.6-1.6,3.6-2.2,6.4-2.2s4.2.4,6.4,1.4l-1.4,3.8c-1.6-1-2.8-1.2-4.2-1.2-2.8,0-4.2,2-4.2,5.8s1.6,5.6,4.8,5.6,2.6-.4,4-1.2l1.6,3.8v-.2Z"/>
        <path class="cls-7" d="M567,365.1v-6.2h5.2v3.6c1-2.6,2.6-3.8,4.8-3.8s1.2,0,1.8.2v4.6c-1,0-1.4-.2-2-.2-2.2,0-3.6,1.4-4.2,4v10h-5.4v-12.2h-.2Z"/>
        <path class="cls-7" d="M587.6,353.3c0,1.8-1.4,3.2-3.2,3.2s-3.2-1.4-3.2-3.2,1.4-3.2,3.2-3.2,3.2,1.4,3.2,3.2ZM581.6,358.9h5.4v18.4h-5.4v-18.4Z"/>
        <path class="cls-7" d="M592.6,366.3v-7.4h5.2v2.4c2-2,3.4-2.8,5.8-2.8,4.6,0,7.6,3.8,7.6,9.8s-.8,5.6-2.2,7.2c-1.4,1.6-3,2.4-5.2,2.4s-4.2-.8-5.4-2.6v10h-5.4v-18.8l-.4-.2ZM598,370.9c1,1.8,2.4,3,4,3s3.4-2.4,3.4-5.8-1.4-5.6-3.6-5.6-2.6.8-3.8,2.8v5.6h0Z"/>
        <path class="cls-7" d="M613.2,362.9v-4h3v-4l5.4-1v5h4v4h-4v7.4c0,2.4.6,3.2,2.4,3.2s1,0,2-.4l.4,4c-1.6.4-3,.6-4.4.6-2.2,0-3.8-.6-4.8-2-.8-1-1-2.6-1-5.4v-7.4h-3Z"/>
      </g>
    </g>
    <g>
      <line class="cls-1" x1="169.6" y1="451.3" x2="169.6" y2="294.3"/>
      <polygon class="cls-5" points="183.2 298.3 169.6 274.7 156 298.3 183.2 298.3"/>
    </g>
    <g>
      <polyline class="cls-1" points="422.2 149.3 387.8 149.3 387.8 325.3 422.2 325.3"/>
      <polygon class="cls-5" points="418.2 135.7 441.8 149.3 418.2 162.7 418.2 135.7"/>
      <polygon class="cls-5" points="418.2 338.7 441.8 325.3 418.2 311.7 418.2 338.7"/>
    </g>
    <g>
      <polyline class="cls-1" points="701.8 135.3 1031.8 135.3 1031.8 247.7"/>
      <polygon class="cls-5" points="1018.2 243.7 1031.8 267.3 1045.2 243.7 1018.2 243.7"/>
    </g>
    <g>
      <polyline class="cls-1" points="917 515.7 917 474.1 1147 474.1 1147 513.5"/>
      <polygon class="cls-5" points="930.6 511.7 917 535.3 903.4 511.7 930.6 511.7"/>
      <polygon class="cls-5" points="1133.4 509.5 1147 533.1 1160.6 509.5 1133.4 509.5"/>
    </g>
    <line class="cls-1" x1="387.8" y1="218.3" x2="304" y2="218.3"/>
    <line class="cls-1" x1="1032" y1="476.7" x2="1032" y2="367.3"/>
    <g>
      <path class="cls-3" d="M55.6,453.1v-11.2h248.4v88.4c-10.6,0-21.4.4-21.4.4v-77.8H55.6v.2Z"/>
      <path class="cls-3" d="M46.4,462.7v-11.4h246.4v88.8c-9.4,0-18.8.6-18.8.6v-78H46.4Z"/>
      <path class="cls-3" d="M34,565.7c124,17,124-17,248-17v-88.2H34v105.2Z"/>
      <g>
        <path class="cls-7" d="M55.6,487.3h11.6c7.2,0,10.4.6,13,2.8,2.8,2.2,4.4,5.8,4.4,10s-1.6,7.8-4.4,10c-2.6,2-5.8,2.8-11.6,2.8h-4v15.8h-9.4v-41.6l.4.2ZM67.4,505.9c3.2,0,4.2,0,5.6-.8,1.6-.8,2.6-2.4,2.6-4.8s-.8-4-2.4-5c-1.4-.8-2.6-1-5.8-1h-2.8v11.6h2.8Z"/>
        <path class="cls-7" d="M86,498.1h9.6l5.4,13.4c1.2,2.8,1.6,3.8,2.6,7,1.2-3.8,1.2-4,2.6-7.4l5-13h9l-12.4,30c-2.8,7-3.8,9-5.8,11-2,2.2-4.8,3.4-8.6,3.4s-5.2-.4-7.6-1.4l1.6-6.8c1.6.8,2.8,1,4.2,1,3,0,4.4-1.6,7-7.6l-12.6-29.6h0Z"/>
        <path class="cls-7" d="M121.8,504.7v-6.6h5v-6.6l9-1.6v8.2h6.8v6.6h-6.8v12.4c0,4,1.2,5.4,4,5.4s1.8,0,3.2-.6l.8,6.6c-2.6.8-5,1-7.4,1-3.8,0-6.4-1.2-8-3.4-1.2-1.8-1.6-4.2-1.6-9v-12.4h-5Z"/>
        <path class="cls-7" d="M148.8,484.9h9.2v16.8c3-3,6-4.4,10-4.4s7,1.6,8.6,4.4c1,1.8,1.4,3.8,1.4,8v19h-9v-18.2c0-2.4,0-3.2-.6-4.2-.6-1.4-2-2.2-3.6-2.2-2.4,0-4.6,1.6-6.8,4.8v20h-9.2v-44Z"/>
        <path class="cls-7" d="M212.8,502.3c2.4,2.8,3.6,6.6,3.6,11.2s-1.6,9.6-4.8,12.4c-2.6,2.4-6.2,3.6-11,3.6s-9.4-1.6-12.2-4.8c-2.4-3-3.6-6.6-3.6-11.4s1.6-9.4,4.8-12.4c2.6-2.4,6.2-3.6,11-3.6s9.4,1.6,12.2,4.8v.2ZM194.2,513.3c0,6.2,2.2,9.6,6.4,9.6s6.4-3.4,6.4-9.4-2.2-9.4-6.4-9.4-6.4,3.4-6.4,9.4v-.2Z"/>
        <path class="cls-7" d="M223.6,509.5c0-3.4,0-4.4-.2-11.4h8.4v4.2c4-3.8,6.6-5,11-5s7,1.6,8.6,4.4c1,1.8,1.4,3.8,1.4,8v19h-9v-18.2c0-2.4,0-3.2-.6-4.2-.6-1.4-2-2.2-3.6-2.2-2.4,0-4.6,1.6-6.8,4.8v20h-9v-19.4h-.2Z"/>
      </g>
    </g>
    <g>
      <rect class="cls-9" x="33" y="163.3" width="272" height="110"/>
      <g>
        <path class="cls-7" d="M74.8,192.7h9.2v16.8c3-3,6-4.4,10-4.4s7,1.6,8.6,4.4c1,1.8,1.4,3.8,1.4,8v19h-9v-18.2c0-2.4,0-3.2-.6-4.2-.6-1.4-2-2.2-3.6-2.2-2.4,0-4.6,1.6-6.8,4.8v20h-9.2v-44Z"/>
        <path class="cls-7" d="M113,192.7h9v43.8h-9v-43.8Z"/>
        <path class="cls-7" d="M131.6,227.9c3,2,5.6,2.8,8.8,2.8s4.4-1,4.4-3-.4-1.6-1.2-2.2q-.8-.4-5-1.8c-4-1.4-5.2-2-6.6-3.2-1.6-1.4-2.4-3.2-2.4-5.8,0-6.2,4.6-9.8,12.4-9.8s6.6.6,11,2.2l-2.2,6.8c-3-1.6-6-2.4-8.6-2.4s-4,1-4,2.8.8,1.8,3.8,3c5.2,1.6,6.8,2.4,8.4,3.6,2,1.6,3,3.4,3,6s-1,5.2-3,7.2-5.6,3.2-10,3.2-8-.8-11.2-2.6l2.2-6.8h.2Z"/>
        <path class="cls-7" d="M176.8,227.1h-20v-7.4l18-24.8h11v25.4h5.6v6.8h-5.6v9.4h-9v-9.4ZM177,203.9l-11.6,16.6h11.6v-16.6Z"/>
        <path class="cls-7" d="M198.4,217.3c0-3.4,0-4.6-.4-11.4h8.4v4.4c3.4-3.6,6.2-5,10.4-5s7,1.8,8.6,5.2c3.4-4,6-5.2,10-5.2s6.8,1.6,8.2,4.4c1,1.8,1.4,3.8,1.4,8v19h-9v-18.2c0-2.4,0-3.2-.4-4.2-.6-1.4-1.8-2.2-3.2-2.2s-4.2,1.6-6,4.8v20h-9v-19.2c0-3.8-1.2-5.6-3.6-5.6s-4.4,1.6-6.2,4.8v20h-9v-19.4l-.2-.2Z"/>
        <path class="cls-7" d="M254.2,192.7h9v43.8h-9s0-43.8,0-43.8Z"/>
      </g>
    </g>
    <g>
      <rect class="cls-8" x="862" y="268.1" width="340" height="110"/>
      <g>
        <path class="cls-7" d="M944,339.1c-5,2.4-7.8,3-13.2,3s-11.8-1.8-15.6-5.6c-3.6-3.8-5.4-9-5.4-15.6,0-13.6,7.8-21.8,20.6-21.8s8.2.8,13.2,3l-3.2,7c-3.4-1.8-6.4-2.8-9.4-2.8-7.2,0-11.4,5.2-11.4,14s4.4,14.2,12,14.2,5.8-.8,10-3.2l2.6,7.4-.2.4Z"/>
        <path class="cls-7" d="M966.6,338.1c-3,3-5.6,4.2-9.8,4.2-6.4,0-10.2-3.6-10.2-9.4s1.6-6.8,4.6-8.6,5-1.6,9.4-1.6,3.2,0,5.4.2v-.4c0-3.8-2.6-6-6.8-6s-5,.8-8.6,2.4l-1.8-6.4c3.6-1.6,7.6-2.4,11.6-2.4s9,1.4,11.4,3.8,3,4.8,3,11v8.6c0,4.4.2,7,.4,8h-8.8v-3.4h.2ZM966.2,327.9h-3c-4.8,0-7.2,1.6-7.2,4.8s1.6,4,4,4,4.2-1.2,6.2-4v-4.8Z"/>
        <path class="cls-7" d="M981.4,317.5v-6.6h5v-6.6l9-1.6v8.2h6.8v6.6h-6.8v12.4c0,4,1.2,5.4,4,5.4s1.8,0,3.2-.6l.8,6.6c-2.6.8-5,1-7.4,1-3.8,0-6.4-1.2-8-3.4-1.2-1.8-1.6-4.2-1.6-9v-12.4h-5Z"/>
        <path class="cls-7" d="M1025.6,338.1c-3,3-5.6,4.2-9.8,4.2-6.4,0-10.2-3.6-10.2-9.4s1.6-6.8,4.6-8.6,5-1.6,9.4-1.6,3.2,0,5.4.2v-.4c0-3.8-2.6-6-6.8-6s-5,.8-8.6,2.4l-1.8-6.4c3.6-1.6,7.6-2.4,11.6-2.4s9,1.4,11.4,3.8c2.4,2.4,3,4.8,3,11v8.6c0,4.4.2,7,.4,8h-8.6v-3.4h0ZM1025.2,327.9h-3c-4.8,0-7.2,1.6-7.2,4.8s1.6,4,4,4,4.2-1.2,6.2-4v-4.8Z"/>
        <path class="cls-7" d="M1043.6,323.1c0-7.2,0-9.2-.4-12.2h8.8l.4,3.8c3-3.4,5.4-4.6,9.2-4.6,7.8,0,12.6,6.2,12.6,16.2s-1.2,9.2-3.6,12c-2.2,2.6-5,3.8-8.8,3.8s-7-1.4-9.2-4.4v16.6h-9v-31.4.2ZM1052.8,330.7c1.8,3.2,4.2,5,6.6,5s5.6-3.8,5.6-9.6-2.4-9.2-6-9.2-4.2,1.4-6.2,4.6v9.2Z"/>
        <path class="cls-7" d="M1110,330.1c0,3.4,0,5.2.4,11.4h-8.4l-.4-4.2c-3.6,3.8-6.2,5-10.4,5s-7-1.6-8.6-4.4c-1-1.8-1.4-3.8-1.4-8v-19h9v18.2c0,2.6,0,3.2.6,4.2.6,1.4,1.8,2.2,3.6,2.2s4.6-1.6,6.6-4.8v-20h9v19.4h0Z"/>
        <path class="cls-7" d="M1119.6,297.7h9v43.8h-9v-43.8Z"/>
        <path class="cls-7" d="M1134.8,317.5v-6.6h5v-6.6l9-1.6v8.2h6.8v6.6h-6.8v12.4c0,4,1.2,5.4,4,5.4s1.8,0,3.2-.6l.8,6.6c-2.6.8-5,1-7.4,1-3.8,0-6.4-1.2-8-3.4-1.2-1.8-1.6-4.2-1.6-9v-12.4h-5Z"/>
      </g>
    </g>
    <g>
      <path class="cls-3" d="M464.4,85.9v-11.2h248.4v88.4c-10.6,0-21.4.4-21.4.4v-77.8h-227v.2Z"/>
      <path class="cls-3" d="M455.2,95.3v-11.4h246.2v88.8c-9.4,0-18.8.6-18.8.6v-78h-227.6.2Z"/>
      <path class="cls-3" d="M442.8,198.5c124,17,124-17,248-17v-88.2h-248v105.2Z"/>
      <g>
        <path class="cls-7" d="M542.4,159.1c-5,2.4-7.8,3-13.2,3s-11.8-1.8-15.6-5.6c-3.6-3.8-5.4-9-5.4-15.6,0-13.6,7.8-21.8,20.6-21.8s8.2.8,13.2,3l-3.2,7c-3.4-1.8-6.4-2.8-9.4-2.8-7.2,0-11.4,5.2-11.4,14s4.4,14.2,12,14.2,5.8-.8,9.8-3.2l2.6,7.4v.4Z"/>
        <path class="cls-7" d="M546.8,149.7v-7h11.6v-11.8h7.6v11.8h11.6v7h-11.6v11.8h-7.6v-11.8h-11.6Z"/>
        <path class="cls-7" d="M584.6,149.7v-7h11.6v-11.8h7.6v11.8h11.6v7h-11.6v11.8h-7.6v-11.8h-11.6Z"/>
      </g>
    </g>
    <g>
      <g>
        <path class="cls-6" d="M706.4,491.1v118.4c0,16.2-57.6,29.8-128.6,29.8s-128.6-13.6-128.6-29.8v-116.4c4.2,15.4,60,28,128.4,28s128.6-13.6,128.6-29.8h.2v-.2Z"/>
        <path class="cls-6" d="M706.4,491.1h-.2c0,16.2-57.6,29.8-128.6,29.8s-124.2-12.6-128.4-28v-1.8c0-16.2,57.6-29.8,128.6-29.8s128.6,13.6,128.6,29.8Z"/>
      </g>
      <g>
        <path class="cls-2" d="M706.2,491.1c0,16.2-57.6,29.8-128.6,29.8s-124.2-12.6-128.4-28c0-.6-.2-1.2-.2-1.8"/>
        <path class="cls-2" d="M449.2,492.9v-1.8c0-16.2,57.6-29.8,128.6-29.8s128.6,13.6,128.6,29.8v118.4c0,16.2-57.6,29.8-128.6,29.8s-128.6-13.6-128.6-29.8v-116.6Z"/>
      </g>
    </g>
    <g>
      <path class="cls-7" d="M524.8,504.1c-3,1.4-4.8,1.8-8,1.8s-7.2-1-9.4-3.4c-2.2-2.2-3.2-5.4-3.2-9.4,0-8.2,4.6-13.2,12.4-13.2s5,.4,7.8,1.8l-1.8,4.2c-2-1.2-3.8-1.6-5.6-1.6-4.4,0-6.8,3.2-6.8,8.4s2.6,8.6,7.2,8.6,3.4-.4,6-2l1.6,4.4-.2.4Z"/>
      <path class="cls-7" d="M538.4,503.3c-1.8,1.8-3.4,2.4-5.8,2.4-3.8,0-6-2.2-6-5.6s1-4.2,2.8-5.2c1.2-.6,3-1,5.6-1h3.2c0-2.4-1.6-3.8-4-3.8s-3,.4-5.2,1.4l-1-3.8c2.2-1,4.6-1.4,7-1.4s5.4.8,6.8,2.4c1.4,1.4,1.8,2.8,1.8,6.6v5.2c0,2.6,0,4.2.2,4.8h-5.2v-2h-.2ZM538.2,497.3h-1.8c-3,0-4.4,1-4.4,2.8s1,2.4,2.4,2.4,2.6-.8,3.6-2.4v-2.8h.2Z"/>
      <path class="cls-7" d="M547.4,490.9v-4h3v-4l5.4-1v5h4v4h-4v7.4c0,2.4.6,3.2,2.4,3.2s1,0,2-.4l.4,4c-1.6.4-3,.6-4.4.6-2.2,0-3.8-.6-4.8-2-.8-1-1-2.6-1-5.4v-7.4h-3Z"/>
      <path class="cls-7" d="M574,503.3c-1.8,1.8-3.4,2.4-5.8,2.4-3.8,0-6-2.2-6-5.6s1-4.2,2.8-5.2c1.2-.6,3-1,5.6-1h3.2c0-2.4-1.6-3.8-4-3.8s-3,.4-5.2,1.4l-1-3.8c2.2-1,4.6-1.4,7-1.4s5.4.8,6.8,2.4c1.4,1.4,1.8,2.8,1.8,6.6v5.2c0,2.6,0,4.2.2,4.8h-5.2v-2h-.2ZM573.6,497.3h-1.8c-3,0-4.4,1-4.4,2.8s1,2.4,2.4,2.4,2.6-.8,3.6-2.4v-2.8h.2Z"/>
      <path class="cls-7" d="M584.8,494.3v-7.4h5.2v2.4c2-2,3.4-2.8,5.8-2.8,4.6,0,7.6,3.8,7.6,9.8s-.8,5.6-2.2,7.2-3,2.4-5.2,2.4-4.2-.8-5.4-2.6v10h-5.4v-18.8l-.4-.2ZM590.2,498.9c1,1.8,2.4,3,4,3s3.4-2.4,3.4-5.8-1.4-5.6-3.6-5.6-2.6.8-3.8,2.8v5.6h0Z"/>
      <path class="cls-7" d="M624.6,498.7v6.8h-5v-2.6c-2.4,2.2-4,3-6.4,3s-4.2-1-5.2-2.6c-.6-1.2-.8-2.4-.8-4.8v-11.4h5.4v11c0,1.6,0,2,.4,2.6.4.8,1.2,1.2,2.2,1.2s2.8-1,4-2.8v-12h5.4v11.6h0Z"/>
      <path class="cls-7" d="M630.2,479.1h5.4v26.4h-5.4v-26.4Z"/>
      <path class="cls-7" d="M639.4,490.9v-4h3v-4l5.4-1v5h4v4h-4v7.4c0,2.4.6,3.2,2.4,3.2s1,0,2-.4l.4,4c-1.6.4-3,.6-4.4.6-2.2,0-3.8-.6-4.8-2-.8-1-1-2.6-1-5.4v-7.4h-3Z"/>
      <path class="cls-7" d="M494,561.5l-2.2,6h-5.6l9.6-25h5.8l9.8,25h-6l-2.2-6h-9.4.2ZM500,551.9c-.6-1.6-.6-2-1.2-3.8-.4,1.6-.6,1.8-1.2,3.8l-2,5.4h6.4l-2-5.4h0Z"/>
      <path class="cls-7" d="M514.2,561.7c3.2,1.4,5.2,1.8,7.2,1.8s3.6-1.2,3.6-3-.6-1.8-4.6-3.6c-3-1.2-3.8-1.6-4.8-2.4-1.4-1.2-2.2-2.6-2.2-4.8s1-4.8,2.8-6.2c1.4-1.2,3.4-1.6,5.8-1.6s4.8.4,8,1.4l-1.2,4.6c-3.4-1.2-4.6-1.6-6.4-1.6s-3.2,1-3.2,2.6.6,1.8,4.2,3.2c3.6,1.6,4.4,1.8,5.4,2.6,1.4,1.2,2.2,2.8,2.2,5,0,5-3.2,7.8-9.2,7.8s-5.6-.4-8.4-1.4l.8-4.8v.4Z"/>
      <path class="cls-7" d="M535.4,542.5h5.6v25h-5.6v-25Z"/>
      <path class="cls-7" d="M566.2,566.1c-3,1.4-4.8,1.8-8,1.8s-7.2-1-9.4-3.4c-2.2-2.2-3.2-5.4-3.2-9.4,0-8.2,4.6-13.2,12.4-13.2s5,.4,7.8,1.8l-1.8,4.2c-2-1.2-3.8-1.6-5.6-1.6-4.4,0-6.8,3.2-6.8,8.4s2.6,8.6,7.2,8.6,3.4-.4,6-2l1.6,4.4-.2.4Z"/>
      <path class="cls-7" d="M578.6,542.5h15.8v4.4h-10.2v5.6h9.8v4.4h-9.8v10.4h-5.6v-25,.2Z"/>
      <path class="cls-7" d="M599.2,542.5h7c4.4,0,6.2.4,7.8,1.6,1.8,1.2,2.6,3.4,2.6,6s-1,4.6-2.6,6c-1.6,1.2-3.6,1.6-7,1.6h-2.4v9.6h-5.6v-25l.2.2ZM606.2,553.7c2,0,2.6,0,3.4-.6,1-.4,1.6-1.4,1.6-2.8s-.6-2.4-1.4-3c-.8-.6-1.6-.6-3.4-.6h-1.6v7h1.6-.2Z"/>
      <path class="cls-7" d="M640.8,566.3c-3.8,1.4-5.8,1.6-8.8,1.6s-7.4-1-9.6-3.2c-2.2-2.2-3.4-5.4-3.4-9.4s1.6-8.4,4.6-10.8c2.2-1.6,4.8-2.4,8.4-2.4s6,.6,8.8,1.6l-2,4.4c-2.6-1.2-4.2-1.6-6.4-1.6-5,0-7.6,3-7.6,8.6s2.8,8.4,7.4,8.4,2.2,0,3.2-.6v-5h-4.2v-4.4h9.8v12.8h-.2Z"/>
      <path class="cls-7" d="M651.6,561.5l-2.2,6h-5.6l9.6-25h5.8l9.8,25h-6l-2.2-6h-9.4.2ZM657.6,551.9c-.6-1.6-.6-2-1.2-3.8-.4,1.6-.6,1.8-1.2,3.8l-2,5.4h6.4l-2-5.4Z"/>
      <path class="cls-7" d="M558.2,584.3h5.4v26.4h-5.4v-26.4Z"/>
      <path class="cls-7" d="M575.2,586.7c0,1.8-1.4,3.2-3.2,3.2s-3.2-1.4-3.2-3.2,1.4-3.2,3.2-3.2,3.2,1.4,3.2,3.2ZM569.2,592.3h5.4v18.4h-5.4v-18.4Z"/>
      <path class="cls-7" d="M580,610.7v-26.4h5.4v10c1.4-1.8,3.2-2.6,5.4-2.6,4.6,0,7.6,3.6,7.6,9.8s-.8,5.6-2.2,7.2c-1.4,1.6-3,2.4-5.2,2.4s-4.2-.8-5.6-3v2.6h-5.4ZM585.6,604.1c1,1.8,2.4,3,4,3s3.4-2.4,3.4-5.8-1.4-5.6-3.6-5.6-2.6.8-3.8,2.8v5.6h0Z"/>
    </g>
    <polyline class="cls-1" points="704.6 563.3 780.6 563.3 780.6 325.3"/>
  </g>
</svg>