<?xml version="1.0" encoding="UTF-8"?>
<svg xmlns="http://www.w3.org/2000/svg" xmlns:xlink="http://www.w3.org/1999/xlink" id="Layer_2" viewBox="0 0 1862.91 410.7">
  <defs>
    <style>
      .cls-1 {
        stroke: #95dc54;
      }

      .cls-1, .cls-2, .cls-3, .cls-4, .cls-5, .cls-6, .cls-7, .cls-8, .cls-9, .cls-10 {
        fill: none;
      }

      .cls-1, .cls-2, .cls-4, .cls-5, .cls-6, .cls-7, .cls-8, .cls-9 {
        stroke-miterlimit: 10;
      }

      .cls-1, .cls-4, .cls-5, .cls-6, .cls-7, .cls-9, .cls-10 {
        stroke-width: 5px;
      }

      .cls-1, .cls-4, .cls-5, .cls-7, .cls-8, .cls-9, .cls-10 {
        stroke-linecap: round;
      }

      .cls-2, .cls-6, .cls-8, .cls-10 {
        stroke: #72858c;
      }

      .cls-2, .cls-8 {
        stroke-width: 3px;
      }

      .cls-11 {
        fill: url(#linear-gradient-2);
      }

      .cls-12 {
        fill: url(#linear-gradient-10);
      }

      .cls-13 {
        fill: url(#linear-gradient-12);
      }

      .cls-14 {
        fill: #fff;
      }

      .cls-15 {
        fill: url(#linear-gradient-4);
      }

      .cls-16 {
        fill: #e15050;
      }

      .cls-4 {
        stroke: #9874db;
      }

      .cls-17 {
        fill: url(#linear-gradient-3);
      }

      .cls-18 {
        fill: url(#linear-gradient-5);
      }

      .cls-19 {
        fill: #7db7db;
      }

      .cls-20 {
        fill: #bfbbba;
      }

      .cls-21 {
        fill: #dbc533;
      }

      .cls-22 {
        fill: url(#linear-gradient-8);
      }

      .cls-23 {
        fill: #72858c;
      }

      .cls-5 {
        stroke: #dbc533;
      }

      .cls-24 {
        fill: url(#linear-gradient-7);
      }

      .cls-25 {
        fill: #95dc54;
      }

      .cls-26 {
        fill: url(#linear-gradient-9);
      }

      .cls-27 {
        fill: url(#linear-gradient-11);
      }

      .cls-28 {
        fill: url(#linear-gradient-6);
      }

      .cls-7 {
        stroke: #e15050;
      }

      .cls-29 {
        fill: url(#linear-gradient);
      }

      .cls-9 {
        stroke: #7db7db;
      }

      .cls-30 {
        fill: #9874db;
      }

      .cls-10 {
        opacity: .5;
        stroke-dasharray: 10;
        stroke-linejoin: round;
      }
    </style>
    <linearGradient id="linear-gradient" x1="399.66" y1="23.01" x2="1193.51" y2="23.01" gradientUnits="userSpaceOnUse">
      <stop offset="0" stop-color="#e15050"></stop>
      <stop offset=".04" stop-color="#dd5354"></stop>
      <stop offset=".08" stop-color="#d35e62"></stop>
      <stop offset=".13" stop-color="#c26f7a"></stop>
      <stop offset=".18" stop-color="#ab879a"></stop>
      <stop offset=".23" stop-color="#8da6c4"></stop>
      <stop offset=".24" stop-color="#88accc"></stop>
      <stop offset=".3" stop-color="#8aa3ce"></stop>
      <stop offset=".39" stop-color="#918bd4"></stop>
      <stop offset=".46" stop-color="#9874db"></stop>
      <stop offset=".73" stop-color="#95dc54"></stop>
      <stop offset=".76" stop-color="#a5d64c"></stop>
      <stop offset=".81" stop-color="#bcce41"></stop>
      <stop offset=".87" stop-color="#cdc939"></stop>
      <stop offset=".93" stop-color="#d7c634"></stop>
      <stop offset="1" stop-color="#dbc533"></stop>
    </linearGradient>
    <linearGradient id="linear-gradient-2" x1="399.66" y1="24.11" x2="1193.51" y2="24.11" xlink:href="#linear-gradient"></linearGradient>
    <linearGradient id="linear-gradient-3" x1="399.66" y1="25.28" x2="1193.51" y2="25.28" xlink:href="#linear-gradient"></linearGradient>
    <linearGradient id="linear-gradient-4" x1="399.66" y1="26.67" x2="1193.51" y2="26.67" xlink:href="#linear-gradient"></linearGradient>
    <linearGradient id="linear-gradient-5" x1="399.66" y1="30.03" x2="1193.51" y2="30.03" xlink:href="#linear-gradient"></linearGradient>
    <linearGradient id="linear-gradient-6" x1="399.66" y1="33.82" x2="1193.51" y2="33.82" xlink:href="#linear-gradient"></linearGradient>
    <linearGradient id="linear-gradient-7" x1="399.66" y1="36.06" x2="1193.51" y2="36.06" xlink:href="#linear-gradient"></linearGradient>
    <linearGradient id="linear-gradient-8" x1="399.66" y1="38.41" x2="1193.51" y2="38.41" xlink:href="#linear-gradient"></linearGradient>
    <linearGradient id="linear-gradient-9" x1="399.66" y1="40.72" x2="1193.51" y2="40.72" xlink:href="#linear-gradient"></linearGradient>
    <linearGradient id="linear-gradient-10" x1="399.66" y1="149.61" x2="1193.51" y2="149.61" xlink:href="#linear-gradient"></linearGradient>
    <linearGradient id="linear-gradient-11" x1="399.66" y1="31.79" x2="1193.51" y2="31.79" xlink:href="#linear-gradient"></linearGradient>
    <linearGradient id="linear-gradient-12" x1="399.66" y1="28.33" x2="1193.51" y2="28.33" xlink:href="#linear-gradient"></linearGradient>
  </defs>
  <g id="Layer_1-2" data-name="Layer_1">
    <g>
      <g>
        <path class="cls-29" d="M421.39,13.01c0-.35.03-.68.07-1-7.27-.12-14.53-.24-21.8-.36.75,7.3,1.55,14.59,2.3,21.88,6.41.28,12.82.56,19.23.84.44-7.11.22-14.23.2-21.36Z"></path>
        <path class="cls-11" d="M458.45,35.99V12.63c-8.2-.14-16.4-.27-24.6-.41.03.26.05.52.05.79.03,7.31.26,14.61-.24,21.9,8.26.36,16.53.72,24.79,1.08Z"></path>
        <path class="cls-17" d="M498.65,13.3c-9.23-.15-18.46-.31-27.69-.46v23.7c9.09.4,18.18.79,27.27,1.19.22-8.14.39-16.28.43-24.43Z"></path>
        <path class="cls-15" d="M546.77,14.09c-11.87-.2-23.74-.39-35.62-.59-.04,8.26-.21,16.51-.44,24.77,12.03.52,24.05,1.05,36.08,1.57.42-8.57.02-17.16-.03-25.75Z"></path>
        <path class="cls-18" d="M660.7,44.8v-28.24c0-.2.01-.39.03-.57-14.64-.24-29.29-.49-43.93-.73.01.17.03.34.03.51v27.12c14.62.64,29.25,1.27,43.87,1.91Z"></path>
        <path class="cls-28" d="M790.41,50.46c.09-9.96.74-19.94.8-29.95,0-.88.17-1.65.43-2.34-19.79-.33-39.57-.66-59.36-.99.04.31.07.63.07.96v29.79c19.35.84,38.71,1.69,58.06,2.53Z"></path>
        <path class="cls-24" d="M866.11,53.76V19.4c-20.91-.35-41.83-.69-62.74-1.04.22.64.34,1.35.33,2.15-.06,10.11-.91,20.32-1.01,30.49,21.14.92,42.28,1.84,63.42,2.76Z"></path>
        <path class="cls-22" d="M945.36,22.47c0-.64.08-1.22.22-1.76-22.32-.37-44.64-.74-66.97-1.11v34.69c22.35.97,44.7,1.95,67.05,2.92.25-11.57-.27-23.16-.31-34.75Z"></path>
        <path class="cls-26" d="M1021.24,21.98c-21.19-.35-42.38-.7-63.56-1.06.11.48.18,1,.18,1.56.04,11.77.59,23.54.3,35.29,14.83.65,29.67,1.29,44.5,1.94,4.89.22,9.78.43,14.67.64,1.3.06,2.61.11,3.91.17V21.98Z"></path>
        <path class="cls-12" d="M1129.01,23.77c-31.75-.53-63.51-1.05-95.26-1.58v38.88c12.55.55,25.09,1.1,37.64,1.65-.11,71.43-.22,142.88-.34,214.32h53.7c-.21-70.67-.42-141.35-.62-212.02v-1.81c18.63,1.42,37.27,2.83,55.9,4.23,4.27.19,8.55.37,12.82.56.22-6.04.45-12.08.67-18.12v-25.04c-21.49-.35-43-.72-64.5-1.07Z"></path>
        <path class="cls-27" d="M719.84,47.38v-29.24c0-.41.04-.8.1-1.17-15.59-.26-31.17-.52-46.76-.78,0,.12.02.24.02.37v28.79c15.54.68,31.09,1.35,46.63,2.03Z"></path>
        <path class="cls-13" d="M604.32,42.35V15.77c0-.25.01-.49.04-.72-15.03-.25-30.06-.5-45.09-.75.06,8.7.46,17.4,0,26.08,15.02.65,30.04,1.31,45.06,1.96Z"></path>
      </g>
      <g>
        <g>
          <rect class="cls-3" x="448.55" y="76.22" width="1414.36" height="215"></rect>
          <path class="cls-23" d="M639.57,276.98h-50.82l-82.03-142.66h-1.16c1.63,25.2,2.45,43.17,2.45,53.92v88.74h-35.73V88.4h50.43l81.91,141.24h.9c-1.29-24.51-1.93-41.83-1.93-51.98v-89.26h35.99v188.58Z"></path>
          <path class="cls-23" d="M763.74,279.56c-23.22,0-41.36-6.4-54.43-19.22-13.07-12.81-19.61-30.96-19.61-54.43s6.04-42.84,18.12-56.04c12.08-13.2,28.78-19.8,50.11-19.8s36.25,5.8,47.6,17.41c11.35,11.61,17.03,27.65,17.03,48.11v19.09h-93c.43,11.18,3.74,19.91,9.93,26.18,6.19,6.28,14.88,9.42,26.06,9.42,8.68,0,16.9-.9,24.64-2.71s15.82-4.69,24.25-8.64v30.44c-6.88,3.44-14.23,6-22.06,7.67-7.83,1.68-17.37,2.52-28.63,2.52ZM758.19,158.05c-8.34,0-14.88,2.64-19.61,7.93-4.73,5.29-7.44,12.79-8.12,22.51h55.21c-.17-9.72-2.71-17.22-7.61-22.51-4.9-5.29-11.53-7.93-19.86-7.93Z"></path>
          <path class="cls-23" d="M898.61,203.33l-46.43-70.56h44.63l27.99,45.92,28.25-45.92h44.63l-46.95,70.56,49.14,73.65h-44.76l-30.31-49.4-30.44,49.4h-44.63l48.89-73.65Z"></path>
          <path class="cls-23" d="M1277.3,171.08h74.81v97.77c-12.12,3.96-23.54,6.73-34.25,8.32-10.71,1.59-21.65,2.39-32.83,2.39-28.46,0-50.2-8.36-65.2-25.09-15.01-16.72-22.51-40.74-22.51-72.04s8.71-54.17,26.12-71.2c17.41-17.03,41.55-25.54,72.43-25.54,19.35,0,38.01,3.87,55.98,11.61l-13.29,31.99c-13.76-6.88-28.08-10.32-42.95-10.32-17.28,0-31.13,5.8-41.53,17.41-10.41,11.61-15.61,27.22-15.61,46.82s4.19,36.1,12.58,46.89c8.38,10.79,20.57,16.19,36.57,16.19,8.34,0,16.81-.86,25.41-2.58v-39.34h-35.73v-33.28Z"></path>
          <path class="cls-23" d="M1473.7,279.56c-23.22,0-41.36-6.4-54.43-19.22-13.07-12.81-19.61-30.96-19.61-54.43s6.04-42.84,18.12-56.04c12.08-13.2,28.78-19.8,50.11-19.8s36.24,5.8,47.6,17.41c11.35,11.61,17.03,27.65,17.03,48.11v19.09h-93c.43,11.18,3.74,19.91,9.93,26.18,6.19,6.28,14.88,9.42,26.05,9.42,8.68,0,16.9-.9,24.64-2.71,7.74-1.81,15.82-4.69,24.25-8.64v30.44c-6.88,3.44-14.23,6-22.06,7.67-7.83,1.68-17.37,2.52-28.63,2.52ZM1468.15,158.05c-8.34,0-14.88,2.64-19.61,7.93-4.73,5.29-7.44,12.79-8.13,22.51h55.21c-.17-9.72-2.71-17.22-7.61-22.51-4.9-5.29-11.52-7.93-19.86-7.93Z"></path>
          <path class="cls-23" d="M1712.15,276.98h-39.34v-84.23c0-10.4-1.85-18.21-5.55-23.41-3.7-5.2-9.59-7.8-17.67-7.8-11.01,0-18.96,3.68-23.86,11.03-4.9,7.35-7.35,19.54-7.35,36.57v67.85h-39.34v-144.21h30.05l5.29,18.45h2.19c4.39-6.97,10.43-12.23,18.12-15.8,7.7-3.57,16.45-5.35,26.25-5.35,16.77,0,29.49,4.54,38.18,13.61,8.69,9.07,13.03,22.17,13.03,39.28v94.03Z"></path>
        </g>
        <g>
          <path class="cls-20" d="M523.29,384.01h-8.97l-36.92-59h-.37c.49,6.92.74,13.27.74,19.04v39.96h-7.25v-70.3h8.87l36.83,58.76h.37c-.06-.87-.2-3.65-.42-8.34-.22-4.7-.29-8.05-.23-10.07v-40.34h7.35v70.3Z"></path>
          <path class="cls-20" d="M568.26,384.98c-7.49,0-13.39-2.37-17.72-7.12-4.33-4.74-6.49-11.33-6.49-19.76s2.01-15.24,6.03-20.24c4.02-5,9.42-7.5,16.2-7.5,6.35,0,11.37,2.17,15.06,6.52,3.7,4.34,5.55,10.07,5.55,17.19v5.05h-34.89c.15,6.19,1.66,10.88,4.51,14.09,2.85,3.21,6.86,4.81,12.04,4.81,5.45,0,10.84-1.19,16.17-3.56v7.12c-2.71,1.22-5.28,2.09-7.69,2.62-2.42.53-5.34.79-8.76.79ZM566.18,337.04c-4.07,0-7.31,1.38-9.73,4.14-2.42,2.76-3.84,6.57-4.27,11.44h26.48c0-5.03-1.08-8.89-3.24-11.56-2.16-2.68-5.24-4.02-9.24-4.02Z"></path>
          <path class="cls-20" d="M618.31,357.04l-17.61-25.73h8.73l13.36,20.2,13.31-20.2h8.64l-17.61,25.73,18.53,26.98h-8.69l-14.19-21.35-14.33,21.35h-8.69l18.53-26.98Z"></path>
          <path class="cls-20" d="M678.21,378.39c1.36,0,2.67-.1,3.93-.31,1.26-.21,2.26-.42,3-.65v6.11c-.83.42-2.06.76-3.67,1.03-1.62.27-3.07.41-4.37.41-9.8,0-14.7-5.37-14.7-16.11v-31.35h-7.25v-3.85l7.25-3.32,3.24-11.25h4.44v12.21h14.7v6.2h-14.7v31.01c0,3.17.72,5.61,2.17,7.31,1.45,1.7,3.43,2.55,5.96,2.55Z"></path>
          <path class="cls-20" d="M763.02,347.18h22.97v34.19c-3.57,1.19-7.21,2.08-10.91,2.69-3.7.61-7.98.91-12.85.91-10.23,0-18.19-3.17-23.89-9.5-5.7-6.33-8.55-15.2-8.55-26.61,0-7.31,1.41-13.71,4.23-19.21,2.82-5.5,6.88-9.7,12.18-12.6,5.3-2.9,11.51-4.35,18.62-4.35s13.92,1.38,20.15,4.14l-3.05,7.21c-6.1-2.69-11.97-4.04-17.61-4.04-8.23,0-14.65,2.55-19.27,7.65-4.62,5.1-6.93,12.17-6.93,21.21,0,9.49,2.23,16.69,6.68,21.59,4.45,4.9,10.99,7.36,19.62,7.36,4.68,0,9.26-.56,13.73-1.68v-21.64h-15.11v-7.31Z"></path>
          <path class="cls-20" d="M828.6,384.98c-7.49,0-13.39-2.37-17.72-7.12-4.33-4.74-6.49-11.33-6.49-19.76s2.01-15.24,6.03-20.24c4.02-5,9.42-7.5,16.2-7.5,6.35,0,11.37,2.17,15.06,6.52,3.7,4.34,5.55,10.07,5.55,17.19v5.05h-34.89c.15,6.19,1.66,10.88,4.51,14.09,2.85,3.21,6.86,4.81,12.04,4.81,5.45,0,10.84-1.19,16.17-3.56v7.12c-2.71,1.22-5.28,2.09-7.69,2.62-2.42.53-5.34.79-8.76.79ZM826.52,337.04c-4.07,0-7.31,1.38-9.73,4.14-2.42,2.76-3.84,6.57-4.27,11.44h26.48c0-5.03-1.08-8.89-3.24-11.56-2.16-2.68-5.24-4.02-9.24-4.02Z"></path>
          <path class="cls-20" d="M901.12,384.01v-34.09c0-4.3-.94-7.5-2.82-9.62s-4.82-3.17-8.83-3.17c-5.3,0-9.18,1.49-11.65,4.47-2.47,2.98-3.7,7.9-3.7,14.76v27.65h-7.67v-52.7h6.24l1.25,7.21h.37c1.57-2.6,3.77-4.61,6.61-6.03,2.83-1.43,5.99-2.14,9.47-2.14,6.1,0,10.69,1.53,13.77,4.59,3.08,3.06,4.62,7.96,4.62,14.69v34.38h-7.67Z"></path>
          <path class="cls-20" d="M952.09,384.98c-7.49,0-13.39-2.37-17.72-7.12-4.33-4.74-6.49-11.33-6.49-19.76s2.01-15.24,6.03-20.24c4.02-5,9.42-7.5,16.2-7.5,6.35,0,11.37,2.17,15.06,6.52,3.7,4.34,5.55,10.07,5.55,17.19v5.05h-34.89c.15,6.19,1.66,10.88,4.51,14.09,2.85,3.21,6.86,4.81,12.04,4.81,5.45,0,10.84-1.19,16.17-3.56v7.12c-2.71,1.22-5.28,2.09-7.69,2.62-2.42.53-5.34.79-8.76.79ZM950.01,337.04c-4.07,0-7.31,1.38-9.73,4.14-2.42,2.76-3.84,6.57-4.27,11.44h26.48c0-5.03-1.08-8.89-3.24-11.56-2.16-2.68-5.24-4.02-9.24-4.02Z"></path>
          <path class="cls-20" d="M1013.05,330.35c2.25,0,4.27.19,6.05.58l-1.06,7.4c-2.1-.48-3.94-.72-5.54-.72-4.1,0-7.6,1.73-10.51,5.19-2.91,3.46-4.37,7.77-4.37,12.94v28.27h-7.67v-52.7h6.33l.88,9.76h.37c1.88-3.43,4.14-6.07,6.79-7.93,2.65-1.86,5.56-2.79,8.73-2.79Z"></path>
          <path class="cls-20" d="M1065.88,384.01l-1.52-7.5h-.37c-2.53,3.3-5.04,5.54-7.56,6.71-2.51,1.17-5.65,1.76-9.4,1.76-5.02,0-8.96-1.35-11.81-4.04-2.85-2.69-4.27-6.52-4.27-11.49,0-10.64,8.18-16.22,24.54-16.73l8.6-.29v-3.27c0-4.14-.86-7.19-2.57-9.16-1.71-1.97-4.44-2.96-8.2-2.96-4.22,0-9,1.35-14.33,4.04l-2.36-6.11c2.5-1.41,5.23-2.52,8.2-3.32s5.95-1.2,8.94-1.2c6.04,0,10.51,1.39,13.42,4.18,2.91,2.79,4.37,7.26,4.37,13.42v35.97h-5.68ZM1048.55,378.39c4.77,0,8.53-1.36,11.25-4.09,2.73-2.72,4.09-6.54,4.09-11.44v-4.76l-7.67.34c-6.1.22-10.5,1.21-13.19,2.96-2.7,1.75-4.04,4.46-4.04,8.15,0,2.89.84,5.08,2.52,6.59,1.68,1.51,4.03,2.26,7.05,2.26Z"></path>
          <path class="cls-20" d="M1109.88,378.39c1.36,0,2.67-.1,3.93-.31,1.26-.21,2.26-.42,3-.65v6.11c-.83.42-2.06.76-3.67,1.03-1.62.27-3.07.41-4.37.41-9.8,0-14.7-5.37-14.7-16.11v-31.35h-7.25v-3.85l7.25-3.32,3.24-11.25h4.44v12.21h14.7v6.2h-14.7v31.01c0,3.17.72,5.61,2.17,7.31,1.45,1.7,3.43,2.55,5.96,2.55Z"></path>
          <path class="cls-20" d="M1132.44,317.03c0-1.83.43-3.17,1.29-4.02.86-.85,1.94-1.27,3.24-1.27s2.29.43,3.19,1.3c.89.87,1.34,2.2,1.34,3.99s-.45,3.13-1.34,4.02c-.89.88-1.96,1.32-3.19,1.32-1.29,0-2.37-.44-3.24-1.32-.86-.88-1.29-2.22-1.29-4.02ZM1140.76,384.01h-7.67v-52.7h7.67v52.7Z"></path>
          <path class="cls-20" d="M1206.89,357.62c0,8.59-2.08,15.3-6.24,20.12-4.16,4.82-9.91,7.24-17.24,7.24-4.53,0-8.55-1.11-12.06-3.32-3.51-2.21-6.22-5.39-8.13-9.52-1.91-4.14-2.87-8.98-2.87-14.52,0-8.59,2.06-15.28,6.19-20.08,4.13-4.79,9.86-7.19,17.19-7.19s12.72,2.45,16.89,7.36c4.17,4.9,6.26,11.54,6.26,19.91ZM1168.3,357.62c0,6.73,1.29,11.86,3.88,15.39,2.59,3.53,6.39,5.29,11.42,5.29s8.83-1.75,11.44-5.27c2.6-3.51,3.9-8.65,3.9-15.41s-1.3-11.79-3.9-15.27c-2.6-3.48-6.45-5.22-11.53-5.22s-8.81,1.72-11.37,5.15c-2.56,3.43-3.84,8.54-3.84,15.34Z"></path>
          <path class="cls-20" d="M1261.15,384.01v-34.09c0-4.3-.94-7.5-2.82-9.62s-4.82-3.17-8.83-3.17c-5.3,0-9.18,1.49-11.65,4.47-2.47,2.98-3.7,7.9-3.7,14.76v27.65h-7.67v-52.7h6.24l1.25,7.21h.37c1.57-2.6,3.77-4.61,6.61-6.03,2.83-1.43,5.99-2.14,9.47-2.14,6.1,0,10.69,1.53,13.77,4.59,3.08,3.06,4.62,7.96,4.62,14.69v34.38h-7.67Z"></path>
          <path class="cls-20" d="M1343.42,384.01h-7.86v-63.04h-21.4v-7.26h50.65v7.26h-21.4v63.04Z"></path>
          <path class="cls-20" d="M1403.08,330.35c2.25,0,4.27.19,6.05.58l-1.06,7.4c-2.1-.48-3.94-.72-5.54-.72-4.1,0-7.6,1.73-10.51,5.19-2.91,3.46-4.37,7.77-4.37,12.94v28.27h-7.67v-52.7h6.33l.88,9.76h.37c1.88-3.43,4.14-6.07,6.79-7.93,2.65-1.86,5.56-2.79,8.73-2.79Z"></path>
          <path class="cls-20" d="M1424.12,317.03c0-1.83.43-3.17,1.29-4.02.86-.85,1.94-1.27,3.24-1.27s2.29.43,3.19,1.3c.89.87,1.34,2.2,1.34,3.99s-.45,3.13-1.34,4.02c-.89.88-1.96,1.32-3.19,1.32-1.29,0-2.37-.44-3.24-1.32-.86-.88-1.29-2.22-1.29-4.02ZM1432.44,384.01h-7.67v-52.7h7.67v52.7Z"></path>
          <path class="cls-20" d="M1496.31,331.31v5.05l-9.38,1.15c.86,1.12,1.63,2.59,2.31,4.4.68,1.81,1.02,3.85,1.02,6.13,0,5.16-1.69,9.28-5.08,12.36-3.39,3.08-8.04,4.62-13.96,4.62-1.51,0-2.93-.13-4.25-.38-3.27,1.8-4.9,4.06-4.9,6.78,0,1.44.57,2.51,1.71,3.2,1.14.69,3.1,1.03,5.87,1.03h8.96c5.48,0,9.7,1.2,12.64,3.61s4.41,5.9,4.41,10.48c0,5.83-2.25,10.28-6.75,13.34-4.5,3.06-11.06,4.59-19.69,4.59-6.62,0-11.73-1.28-15.32-3.85-3.59-2.56-5.38-6.19-5.38-10.87,0-3.21.99-5.98,2.96-8.32,1.97-2.34,4.74-3.93,8.32-4.76-1.29-.61-2.38-1.55-3.26-2.84-.88-1.28-1.32-2.77-1.32-4.47,0-1.92.49-3.61,1.48-5.05.99-1.44,2.54-2.84,4.67-4.18-2.62-1.12-4.75-3.03-6.4-5.72-1.65-2.69-2.47-5.77-2.47-9.23,0-5.77,1.66-10.22,4.99-13.34s8.04-4.69,14.14-4.69c2.65,0,5.04.32,7.16.96h17.51ZM1455.92,392.86c0,2.85,1.16,5.02,3.47,6.49,2.31,1.47,5.62,2.21,9.94,2.21,6.44,0,11.21-1,14.3-3.01,3.1-2,4.64-4.72,4.64-8.15,0-2.85-.85-4.83-2.54-5.94-1.69-1.11-4.88-1.66-9.57-1.66h-9.2c-3.48,0-6.19.87-8.13,2.6-1.94,1.73-2.91,4.21-2.91,7.45ZM1460.08,348.19c0,3.69,1,6.48,3,8.37,2,1.89,4.79,2.84,8.36,2.84,7.49,0,11.23-3.78,11.23-11.35s-3.79-11.88-11.37-11.88c-3.6,0-6.38,1.01-8.32,3.03-1.94,2.02-2.91,5.02-2.91,8.99Z"></path>
          <path class="cls-20" d="M1554.31,331.31v5.05l-9.38,1.15c.86,1.12,1.63,2.59,2.31,4.4.68,1.81,1.02,3.85,1.02,6.13,0,5.16-1.69,9.28-5.08,12.36-3.39,3.08-8.04,4.62-13.96,4.62-1.51,0-2.93-.13-4.25-.38-3.27,1.8-4.9,4.06-4.9,6.78,0,1.44.57,2.51,1.71,3.2,1.14.69,3.1,1.03,5.87,1.03h8.96c5.48,0,9.7,1.2,12.64,3.61s4.41,5.9,4.41,10.48c0,5.83-2.25,10.28-6.75,13.34-4.5,3.06-11.06,4.59-19.69,4.59-6.62,0-11.73-1.28-15.32-3.85-3.59-2.56-5.38-6.19-5.38-10.87,0-3.21.99-5.98,2.96-8.32,1.97-2.34,4.74-3.93,8.32-4.76-1.29-.61-2.38-1.55-3.26-2.84-.88-1.28-1.32-2.77-1.32-4.47,0-1.92.49-3.61,1.48-5.05.99-1.44,2.54-2.84,4.67-4.18-2.62-1.12-4.75-3.03-6.4-5.72-1.65-2.69-2.47-5.77-2.47-9.23,0-5.77,1.66-10.22,4.99-13.34s8.04-4.69,14.14-4.69c2.65,0,5.04.32,7.16.96h17.51ZM1513.92,392.86c0,2.85,1.16,5.02,3.47,6.49,2.31,1.47,5.62,2.21,9.94,2.21,6.44,0,11.21-1,14.3-3.01,3.1-2,4.64-4.72,4.64-8.15,0-2.85-.85-4.83-2.54-5.94-1.69-1.11-4.88-1.66-9.57-1.66h-9.2c-3.48,0-6.19.87-8.13,2.6-1.94,1.73-2.91,4.21-2.91,7.45ZM1518.08,348.19c0,3.69,1,6.48,3,8.37,2,1.89,4.79,2.84,8.36,2.84,7.49,0,11.23-3.78,11.23-11.35s-3.79-11.88-11.37-11.88c-3.6,0-6.38,1.01-8.32,3.03-1.94,2.02-2.91,5.02-2.91,8.99Z"></path>
          <path class="cls-20" d="M1592.25,384.98c-7.49,0-13.39-2.37-17.72-7.12-4.33-4.74-6.49-11.33-6.49-19.76s2.01-15.24,6.03-20.24c4.02-5,9.42-7.5,16.2-7.5,6.35,0,11.37,2.17,15.06,6.52,3.7,4.34,5.55,10.07,5.55,17.19v5.05h-34.89c.15,6.19,1.66,10.88,4.51,14.09,2.85,3.21,6.86,4.81,12.04,4.81,5.45,0,10.84-1.19,16.17-3.56v7.12c-2.71,1.22-5.28,2.09-7.69,2.62-2.42.53-5.34.79-8.76.79ZM1590.18,337.04c-4.07,0-7.31,1.38-9.73,4.14-2.42,2.76-3.84,6.57-4.27,11.44h26.48c0-5.03-1.08-8.89-3.24-11.56-2.16-2.68-5.24-4.02-9.24-4.02Z"></path>
          <path class="cls-20" d="M1653.21,330.35c2.25,0,4.27.19,6.05.58l-1.06,7.4c-2.1-.48-3.94-.72-5.54-.72-4.1,0-7.6,1.73-10.51,5.19-2.91,3.46-4.37,7.77-4.37,12.94v28.27h-7.67v-52.7h6.33l.88,9.76h.37c1.88-3.43,4.14-6.07,6.79-7.93,2.65-1.86,5.56-2.79,8.73-2.79Z"></path>
          <path class="cls-20" d="M1707.57,369.64c0,4.9-1.76,8.69-5.27,11.35-3.51,2.66-8.44,3.99-14.79,3.99-6.72,0-11.95-1.11-15.71-3.32v-7.41c2.43,1.28,5.04,2.29,7.83,3.03,2.79.74,5.48,1.11,8.06,1.11,4,0,7.08-.67,9.24-2,2.16-1.33,3.24-3.36,3.24-6.08,0-2.05-.86-3.81-2.57-5.27-1.71-1.46-5.04-3.18-10-5.17-4.71-1.83-8.06-3.42-10.05-4.78-1.99-1.36-3.47-2.91-4.44-4.64-.97-1.73-1.46-3.8-1.46-6.2,0-4.3,1.68-7.69,5.04-10.17,3.36-2.48,7.96-3.73,13.82-3.73,5.45,0,10.78,1.15,15.99,3.46l-2.73,6.49c-5.08-2.18-9.69-3.27-13.82-3.27-3.63,0-6.38.59-8.23,1.78-1.85,1.19-2.77,2.82-2.77,4.9,0,1.41.35,2.61,1.04,3.61.69.99,1.81,1.94,3.35,2.84,1.54.9,4.5,2.2,8.87,3.9,6.01,2.28,10.07,4.57,12.18,6.88s3.17,5.21,3.17,8.7Z"></path>
        </g>
      </g>
    </g>
    <g>
      <ellipse class="cls-10" cx="202.3" cy="202.96" rx="199.8" ry="195.29"></ellipse>
      <circle class="cls-6" cx="201.85" cy="204.31" r="101.48"></circle>
      <line class="cls-7" x1="151.79" y1="272.41" x2="195.35" y2="206.34"></line>
      <path class="cls-7" d="M69.25,246.15c44.96-13.8,86.79-27.43,125.17-40.47"></path>
      <path class="cls-5" d="M195.03,202.21c-8.92-4.46-18.37-9.74-28.13-16.02-15.73-10.13-28.98-20.74-39.94-30.75"></path>
      <path class="cls-5" d="M64.33,187.5c2.14.37,4.3.73,6.46,1.09,44.1,7.38,85.62,12.72,124.03,16.56"></path>
      <path class="cls-7" d="M173.69,336.5c2.68-11.87,5.28-24.22,7.72-37.01,6.54-34.18,10.95-65.77,13.94-94.06"></path>
      <path class="cls-5" d="M197,198.8c-21.29-22.61-44.21-45.99-68.82-69.89-9.11-8.85-18.16-17.48-27.13-25.89"></path>
      <path class="cls-8" d="M183.74,104.92c-.05-.34-.1-.69-.15-1.03"></path>
      <path class="cls-9" d="M197.49,198.77c-9.53-27.73-19.01-55.91-28.4-84.56-3.43-10.44-6.81-20.85-10.15-31.21"></path>
      <path class="cls-9" d="M200.58,198.44c-.6-30.94-.31-64.32,1.32-99.83.51-11.21,1.14-22.23,1.87-33.04"></path>
      <line class="cls-1" x1="203.33" y1="199.3" x2="248.75" y2="93.36"></line>
      <path class="cls-9" d="M202.76,352.82c-.2-3.2-.4-6.41-.58-9.65-2.86-49.5-3.53-95.08-2.93-135.95"></path>
      <line class="cls-9" x1="218.79" y1="267.27" x2="199.34" y2="207.19"></line>
      <path class="cls-9" d="M300.69,298.5c-12.44-12.45-25.35-25.09-38.74-37.89-19.82-18.95-39.24-36.86-58.13-53.75"></path>
      <path class="cls-5" d="M328.14,240.33c-5.7-1.91-11.48-3.79-17.36-5.65-38.95-12.33-75.13-21.45-107.53-28.26"></path>
      <path class="cls-4" d="M321.37,196.68c-5.02-.06-10.12-.08-15.29-.04-37.9.27-71.81,3.32-100.79,7.37"></path>
      <path class="cls-4" d="M311.32,122.49c-7.38,5.07-14.83,10.26-22.34,15.59-30.25,21.46-57.96,42.51-83.12,62.63"></path>
      <path class="cls-2" d="M183.74,104.92c.66-.12,1.33-.24,1.99-.35"></path>
      <circle class="cls-25" cx="199.14" cy="7.67" r="7.67"></circle>
      <circle class="cls-25" cx="285.74" cy="26.61" r="7.67"></circle>
      <circle class="cls-25" cx="347.98" cy="74.42" r="7.67"></circle>
      <circle class="cls-21" cx="394.88" cy="156.5" r="7.67"></circle>
      <circle class="cls-21" cx="394.88" cy="244.9" r="7.67"></circle>
      <circle class="cls-21" cx="359.7" cy="324.28" r="7.67"></circle>
      <circle class="cls-19" cx="290.25" cy="380.2" r="7.67"></circle>
      <circle class="cls-25" cx="120.67" cy="23" r="7.67"></circle>
      <circle class="cls-21" cx="54.82" cy="69.91" r="7.67"></circle>
      <circle class="cls-21" cx="11.52" cy="151.99" r="7.67"></circle>
      <circle class="cls-16" cx="8.81" cy="240.39" r="7.67"></circle>
      <circle class="cls-16" cx="43.09" cy="319.77" r="7.67"></circle>
      <circle class="cls-16" cx="108.04" cy="375.69" r="7.67"></circle>
      <line class="cls-4" x1="203.67" y1="199.05" x2="259.64" y2="143.08"></line>
      <line class="cls-9" x1="197.29" y1="199.02" x2="191.02" y2="136.66"></line>
      <path class="cls-5" d="M278.25,242.07c-9.51-2.98-19.69-6.7-30.32-11.35-17.14-7.5-31.9-15.88-44.32-24.02"></path>
      <line class="cls-1" x1="100.82" y1="103.28" x2="120.67" y2="23"></line>
      <line class="cls-5" x1="359.7" y1="324.28" x2="328.13" y2="240.39"></line>
      <line class="cls-7" x1="65.64" y1="247.61" x2="8.81" y2="240.39"></line>
      <line class="cls-4" x1="310.99" y1="122.22" x2="363.31" y2="122.22"></line>
      <line class="cls-5" x1="328.13" y1="240.39" x2="394.88" y2="244.9"></line>
      <line class="cls-7" x1="173.88" y1="336.91" x2="199.14" y2="400.95"></line>
      <line class="cls-7" x1="173.88" y1="336.91" x2="108.04" y2="375.69"></line>
      <line class="cls-7" x1="65.64" y1="247.61" x2="43.09" y2="319.77"></line>
      <line class="cls-5" x1="11.52" y1="151.99" x2="64.74" y2="187.17"></line>
      <line class="cls-5" x1="62.03" y1="185.37" x2="100.82" y2="103.28"></line>
      <line class="cls-7" x1="65.19" y1="247.15" x2="172.98" y2="337.81"></line>
      <line class="cls-7" x1="62.03" y1="187.17" x2="65.64" y2="246.7"></line>
      <line class="cls-5" x1="54.82" y1="69.91" x2="100.82" y2="103.28"></line>
      <line class="cls-1" x1="199.14" y1="7.67" x2="100.82" y2="103.28"></line>
      <line class="cls-1" x1="285.74" y1="26.61" x2="248.75" y2="92.46"></line>
      <line class="cls-1" x1="248.75" y1="92.46" x2="347.98" y2="74.42"></line>
      <line class="cls-4" x1="337.15" y1="151.09" x2="322.72" y2="196.19"></line>
      <line class="cls-5" x1="328.13" y1="240.39" x2="394.88" y2="156.5"></line>
      <line class="cls-9" x1="290.25" y1="380.2" x2="301.07" y2="298.12"></line>
      <line class="cls-9" x1="266.79" y1="341.42" x2="202.75" y2="353.14"></line>
      <line class="cls-9" x1="203.65" y1="67.2" x2="243.34" y2="34.73"></line>
      <line class="cls-9" x1="158.55" y1="82.54" x2="150.43" y2="33.83"></line>
      <circle class="cls-19" cx="150.43" cy="34.73" r="7.89"></circle>
      <circle class="cls-16" cx="198.48" cy="399.72" r="7.67"></circle>
      <circle class="cls-14" cx="200.19" cy="203.12" r="6"></circle>
      <circle class="cls-19" cx="159.55" cy="83.09" r="7.89"></circle>
      <circle class="cls-19" cx="204.55" cy="67.09" r="7.89"></circle>
      <circle class="cls-19" cx="243.55" cy="34.09" r="7.89"></circle>
      <circle class="cls-25" cx="249.55" cy="91.09" r="7.89"></circle>
      <circle class="cls-30" cx="311.73" cy="122.12" r="7.89"></circle>
      <circle class="cls-30" cx="366.73" cy="122.12" r="7.89"></circle>
      <circle class="cls-30" cx="337.73" cy="149.12" r="7.89"></circle>
      <circle class="cls-30" cx="322.73" cy="196.12" r="7.89"></circle>
      <circle class="cls-21" cx="361.73" cy="198.12" r="7.89"></circle>
      <circle class="cls-21" cx="329.73" cy="242.12" r="7.89"></circle>
      <circle class="cls-19" cx="300.93" cy="300.52" r="7.89"></circle>
      <circle class="cls-19" cx="269.93" cy="340.52" r="7.89"></circle>
      <circle class="cls-19" cx="203.93" cy="352.52" r="7.89"></circle>
      <circle class="cls-16" cx="172.93" cy="337.52" r="7.89"></circle>
      <circle class="cls-16" cx="119.93" cy="292.52" r="7.89"></circle>
      <circle class="cls-16" cx="65.14" cy="248.04" r="7.89"></circle>
      <circle class="cls-21" cx="62.14" cy="186.04" r="7.89"></circle>
      <circle class="cls-21" cx="100.98" cy="103.16" r="7.89"></circle>
    </g>
  </g>
</svg>
